<?xml version="1.0" encoding="UTF-8"?>
<svg width="46px" height="52px" viewBox="0 0 46 52" version="1.1" xmlns="http://www.w3.org/2000/svg" xmlns:xlink="http://www.w3.org/1999/xlink">
    <!-- Generator: Sketch 52.5 (67469) - http://www.bohemiancoding.com/sketch -->
    <title>boston</title>
    <desc>Created with Sketch.</desc>
    <g id="Page-1" stroke="none" stroke-width="1" fill="none" fill-rule="evenodd">
        <g id="desktop_landing" transform="translate(-52.000000, -73.000000)" fill="#4C3A26" fill-rule="nonzero">
            <g id="side-bar" transform="translate(39.000000, 51.000000)">
                <g id="boston" transform="translate(13.000000, 22.000000)">
                    <path d="M44.9532602,1.09537944 C44.3571411,0.412185478 43.528373,0.0442577948 42.4917057,0.00283082287 C40.8377051,-0.0645757756 39.1045048,1.1339978 37.9518665,2.04188043 C35.3057485,4.12586776 33.3031279,6.92534805 31.3662713,9.63284642 C31.1300865,9.96356005 30.8946088,10.2928694 30.6598383,10.6179658 C30.5587173,10.7569919 30.4583034,10.8967201 30.3557681,11.0350441 C30.128069,11.3496082 29.8925914,11.6754068 29.663478,12.0019075 C27.9903846,11.5089967 26.2529415,11.2590306 24.4737772,11.2590306 L21.5264174,11.2590306 C19.7472531,11.2590306 18.0105171,11.5089967 16.3374237,12.0019075 C16.1083104,11.6754068 15.8728327,11.3496082 15.6444265,11.0350441 C15.5425983,10.8967201 15.4421844,10.7569919 15.3410634,10.6179658 C15.1062929,10.2928694 14.8708153,9.96356005 14.6339234,9.63284642 C12.6970668,6.92534805 10.6944461,4.12586776 8.04832807,2.04188043 C6.89568979,1.1339978 5.1639038,-0.0659800797 3.50848894,0.00283082287 C2.47111449,0.0449599469 1.64234635,0.412185478 1.04622728,1.09537944 C-0.305824493,2.64502905 -0.0286255926,5.34691021 0.156645101,7.13388722 C0.303730231,8.57189465 0.586586252,9.99656119 0.859542311,11.3734814 C0.952177658,11.8383061 1.04410586,12.3031307 1.13108409,12.7679554 C1.52354682,14.8645815 2.03763764,17.1023401 2.74972767,19.8126471 C3.06157643,20.9971776 3.39888223,22.2069856 3.75386654,23.40907 C3.92570157,23.9883454 4.10743657,24.5879833 4.29624296,25.1911319 C4.33513566,25.3182215 4.40231397,25.4748014 4.48717077,25.6742125 C4.57344186,25.8785388 4.74386261,26.2787655 4.78982671,26.4739638 C4.15340067,28.2103858 3.83094481,30.035279 3.83094481,31.8994928 C3.83094481,36.1074901 5.47080258,40.0634149 8.44998362,43.0517741 L8.00236397,44.3296908 C7.851036,44.6498722 7.1219746,46.3371436 7.68910092,48.0510968 C8.04408523,49.123283 8.81628217,49.9721848 9.98377039,50.5739292 C10.2454122,50.7656167 11.102466,51.321019 12.314504,51.321019 C13.1319579,51.321019 13.9310262,51.0682442 14.6904946,50.5676098 L14.834044,50.4777343 C15.672005,51.1019475 17.5671403,52 21.5278317,52 L24.4751915,52 C28.4351757,52 30.3288968,51.1033518 31.1696863,50.4777343 L31.3132357,50.5676098 C32.071997,51.0682442 32.8717724,51.321019 33.6885192,51.321019 C34.9012644,51.321019 35.7583181,50.7656167 36.0192528,50.5739292 C37.186741,49.972887 37.9589379,49.1239851 38.3139223,48.0510968 C38.8810486,46.3378457 38.1519872,44.6498722 38.0013663,44.3296908 L37.5530396,43.0517741 C40.5315135,40.0634149 42.1720784,36.1074901 42.1720784,31.8994928 C42.1720784,30.035279 41.8489154,28.2103858 41.2124893,26.4739638 C41.2584534,26.2794676 41.4295813,25.8785388 41.5158524,25.6742125 C41.6000021,25.4748014 41.6671804,25.3182215 41.7060731,25.1911319 C41.8955866,24.5879833 42.0766145,23.9883454 42.2484495,23.40907 C42.6034338,22.2076878 42.9407396,20.9971776 43.2532955,19.8126471 C43.9646784,17.1023401 44.4794764,14.8645815 44.8712319,12.7679554 C44.9589173,12.3024286 45.0508455,11.8376039 45.1434809,11.3734814 C45.4164369,9.99656119 45.6985858,8.57189465 45.8463781,7.13388722 C46.0274059,5.34620805 46.305312,2.6443269 44.9532602,1.09537944 Z M15.5468412,19.5065088 C17.0099139,16.081411 18.9665705,13.4729161 22.9993902,13.4729161 C27.0315027,13.4729161 28.9846236,16.0743895 30.451232,19.5065088 C30.8818803,20.5147992 30.9957299,21.7498846 30.5778101,22.7792396 C30.087762,23.9855368 28.6345892,24.1034984 27.9840204,25.1848126 C27.6007505,25.8202602 27.3723442,26.6733749 27.3723442,27.4661046 C27.3723442,28.1113824 27.5293293,28.682232 27.7577356,29.1744406 C25.5599443,28.7313826 23.175468,28.8907712 20.9430269,28.9034099 C20.5533927,28.9055164 20.16588,28.9216659 19.7790744,28.954667 C19.5655181,28.972923 18.3209516,29.0024133 18.2417519,29.1737385 C18.4708653,28.682232 18.6271432,28.1106802 18.6271432,27.4654025 C18.6271432,26.6726728 18.398737,25.819558 18.0154671,25.1841104 C17.4518765,24.2481417 16.162053,24.1491383 15.6288694,23.1977222 C14.9995148,22.0756832 15.0532574,20.6615489 15.5468412,19.5065088 Z M3.96459428,8.27839509 C3.96459428,8.27839509 2.20381555,-1.25893644 12.2600542,14.3611384 C12.2600542,14.3611384 8.42028374,17.1606187 6.92609681,21.9514023 C6.92538967,21.8186955 4.0091441,10.8026318 3.96459428,8.27839509 Z M5.4587812,30.6756417 C5.4587812,28.5593554 7.18773863,26.8425936 9.31976588,26.8425936 C11.4517931,26.8425936 13.1800434,28.5593554 13.1800434,30.6756417 C13.1800434,32.7933324 11.451086,34.5100942 9.31976588,34.5100942 C7.18773863,34.5100942 5.4587812,32.7933324 5.4587812,30.6756417 Z M24.47307,50.5156505 L21.5257103,50.5156505 C18.6292647,50.5156505 17.0473924,50.0122075 16.2370099,49.6007464 L22.9993902,45.3794082 L29.7624776,49.6014485 C28.9528023,50.0129097 27.3716371,50.5156505 24.47307,50.5156505 Z M36.8918636,47.5876764 C36.6585074,48.2919349 36.1154238,48.8620824 35.2788772,49.2812672 C35.2336202,49.3037361 35.1834132,49.3360351 35.1445205,49.3676319 C35.1381563,49.372547 34.5406229,49.8366695 33.6863978,49.8366695 C33.1666498,49.8366695 32.6419519,49.6646422 32.1313968,49.3262049 C32.1257397,49.321992 32.1193754,49.3177791 32.1144254,49.3149705 L23.7468372,44.0937677 L23.7468372,36.1418956 C23.7468372,35.7311366 23.41236,35.3997208 22.9993902,35.3997208 C22.5864204,35.3997208 22.2519431,35.7311366 22.2519431,36.1418956 L22.2519431,44.0937677 L13.8843549,49.3156726 C13.8786978,49.3184813 13.8730407,49.3226942 13.8673835,49.3269071 C13.3554142,49.6646422 12.8321305,49.8373716 12.3116754,49.8373716 C11.4574503,49.8373716 10.8599169,49.3732491 10.8585026,49.372547 C10.8153671,49.3367372 10.7686958,49.3065447 10.7184889,49.2819693 C7.9783212,47.9085599 9.20945203,45.2452971 9.35795144,44.9482868 C9.37280139,44.9187964 9.38623705,44.8886039 9.39755129,44.857007 L12.6079671,35.6784752 C12.6129171,35.6644322 12.6171599,35.6503891 12.6214028,35.6363461 C13.1298365,33.8479648 14.3560173,32.2442494 16.0694177,31.4423918 C18.3089302,30.395483 20.6771422,30.4039089 23.1019255,30.4060153 C26.1454563,30.4081218 30.2306043,30.4376122 32.1674609,33.2406032 C32.6454876,33.9329252 33.147557,34.8253604 33.3780847,35.6356439 C33.3823275,35.649687 33.3858632,35.66373 33.3908132,35.677773 L36.601229,44.8563049 C36.6125433,44.8879017 36.6252718,44.9180943 36.6408289,44.9475846 C36.6471932,44.9609255 37.3104905,46.3223984 36.8918636,47.5876764 Z M36.6790145,34.5100942 C34.5476943,34.5100942 32.8187369,32.7933324 32.8187369,30.6756417 C32.8187369,28.5593554 34.5476943,26.8425936 36.6790145,26.8425936 C38.8117488,26.8425936 40.5407063,28.5593554 40.5407063,30.6756417 C40.5407063,32.7933324 38.8110417,34.5100942 36.6790145,34.5100942 Z M42.0341861,8.27839509 C41.9896362,10.8026318 39.0733907,21.8186955 39.0733907,21.9514023 C37.5784966,17.1613209 33.7387261,14.3611384 33.7387261,14.3611384 C43.7956719,-1.25823429 42.0341861,8.27839509 42.0341861,8.27839509 Z M11.9361841,30.6756417 C11.9361841,29.241145 10.764453,28.0783812 9.31976588,28.0783812 C7.87437162,28.0783812 6.70264055,29.241145 6.70264055,30.6756417 C6.70264055,32.1115427 7.87366448,33.2743065 9.31976588,33.2743065 C10.764453,33.2743065 11.9361841,32.1115427 11.9361841,30.6756417 Z M7.90902148,32.1340116 C7.50312309,32.1340116 7.17501011,31.8068087 7.17501011,31.4051777 C7.17501011,31.0028446 7.50312309,30.6756417 7.90902148,30.6756417 C8.31421273,30.6756417 8.64232571,31.0028446 8.64232571,31.4051777 C8.64232571,31.8068087 8.31350559,32.1340116 7.90902148,32.1340116 Z M36.6790145,28.0783812 C35.2343273,28.0783812 34.0633034,29.241145 34.0633034,30.6756417 C34.0633034,32.1115427 35.2343273,33.2743065 36.6790145,33.2743065 C38.1251159,33.2743065 39.2961398,32.1115427 39.2961398,30.6756417 C39.2961398,29.241145 38.1251159,28.0783812 36.6790145,28.0783812 Z M35.2689772,32.1340116 C34.8637859,32.1340116 34.5349658,31.8068087 34.5349658,31.4051777 C34.5349658,31.0028446 34.8637859,30.6756417 35.2689772,30.6756417 C35.6741684,30.6756417 36.0022814,31.0028446 36.0022814,31.4051777 C36.0022814,31.8068087 35.6741684,32.1340116 35.2689772,32.1340116 Z M26.9445245,32.1705235 C25.9276571,31.4592434 24.9362468,31.397454 23.9250365,31.3946454 L23.5544951,31.3932411 C23.1846609,31.3904325 22.8141195,31.3904325 22.4442852,31.3932411 L22.0723296,31.3946454 C21.0625336,31.3981562 20.0704161,31.4599456 19.0542558,32.1705235 C17.5720903,33.2068999 17.1569991,35.271227 18.1455809,36.6776376 C18.7911997,37.5960525 20.0407162,37.8972757 20.988991,37.3657466 C21.5893529,37.0294158 22.5206564,36.1980677 22.0150512,34.4138993 C21.9033231,34.0192899 21.4917676,33.788984 21.0936477,33.9006262 C20.6955279,34.0122683 20.4642931,34.4209208 20.5767284,34.8162325 C20.8199845,35.6742623 20.5371285,35.9151004 20.2542725,36.0737868 C19.9735379,36.231771 19.5768323,36.1215332 19.3717617,35.8287357 C18.797564,35.012835 19.1970981,33.8844767 19.9148453,33.3838422 C20.51945,32.9604445 21.1183976,32.8818035 22.0779867,32.8782928 L22.453478,32.8768885 C22.8183623,32.874782 23.1825394,32.874782 23.5474237,32.8768885 L23.9215008,32.8782928 C24.8810898,32.8818035 25.4800375,32.9604445 26.0860565,33.3838422 C26.8030965,33.8851788 27.2019235,35.012835 26.62914,35.8287357 C26.4233623,36.1215332 26.0266567,36.2310689 25.7466293,36.0737868 C25.4637732,35.9151004 25.1809172,35.6742623 25.4234663,34.8162325 C25.5359015,34.421623 25.3039596,34.0115662 24.9065469,33.9006262 C24.5091342,33.788984 24.0975787,34.019992 23.9851434,34.4138993 C23.4802454,36.1980677 24.4115488,37.0294158 25.0112036,37.3657466 C25.3272952,37.5433911 25.6773295,37.6283515 26.0273639,37.6283515 C26.7260182,37.6283515 27.4253797,37.2899142 27.8546138,36.6776376 C28.8424884,35.271227 28.4266901,33.2068999 26.9445245,32.1705235 Z" id="Shape"></path>
                </g>
            </g>
        </g>
    </g>
</svg>